<?xml version="1.0" standalone="no"?>
<!DOCTYPE svg PUBLIC "-//W3C//DTD SVG 20010904//EN"
 "http://www.w3.org/TR/2001/REC-SVG-20010904/DTD/svg10.dtd">
<svg version="1.0" xmlns="http://www.w3.org/2000/svg"
 width="312.000000pt" height="95.000000pt" viewBox="0 0 312.000000 95.000000"
 preserveAspectRatio="xMidYMid meet">

<g transform="translate(0.000000,95.000000) scale(0.100000,-0.100000)"
fill="#000000" stroke="none">
<path d="M2681 773 c-29 -14 -79 -51 -110 -82 -75 -73 -114 -153 -119 -243 -4
-64 -3 -69 26 -98 50 -49 141 -41 245 23 26 16 50 27 53 24 3 -3 0 -33 -6 -67
-10 -53 -9 -65 4 -78 8 -8 22 -12 31 -8 14 5 16 14 12 44 -7 44 14 171 37 226
17 42 11 60 -19 54 -12 -2 -22 -20 -30 -53 -15 -56 -39 -80 -129 -125 -156
-79 -230 3 -151 166 44 90 148 178 236 199 19 5 34 0 58 -21 33 -28 44 -25 55
12 18 58 -96 74 -193 27z"/>
<path d="M1204 781 c-98 -16 -174 -48 -174 -75 0 -8 9 -16 20 -19 15 -4 20
-14 20 -36 0 -36 -25 -211 -40 -276 -12 -54 -4 -77 24 -73 16 2 22 11 23 38 4
56 33 270 44 327 10 50 12 53 51 63 66 18 145 17 164 -2 37 -36 -14 -109 -112
-159 -27 -14 -49 -32 -49 -40 0 -14 7 -14 85 -3 26 4 42 0 63 -16 74 -59 -13
-171 -144 -187 -52 -6 -74 -27 -48 -44 18 -12 95 -1 134 18 83 43 135 106 135
162 0 44 -13 65 -55 91 l-36 22 46 49 c35 37 45 56 45 82 0 68 -73 97 -196 78z"/>
<path d="M905 733 c-12 -90 -37 -168 -80 -260 -24 -51 -48 -93 -53 -93 -11 0
-39 62 -78 172 -27 75 -40 98 -55 98 -5 0 -23 -28 -40 -62 -48 -98 -123 -218
-135 -218 -11 0 -40 125 -65 275 -6 39 -15 80 -20 93 -8 22 -33 30 -43 14 -5
-9 55 -315 79 -398 8 -28 21 -57 29 -63 17 -14 33 7 125 167 31 52 61 97 67
99 6 2 26 -36 44 -84 76 -204 89 -209 160 -57 56 120 99 245 107 317 5 42 4
47 -14 47 -17 0 -22 -9 -28 -47z"/>
<path d="M1563 768 c-6 -7 -13 -49 -17 -93 -4 -44 -14 -134 -23 -200 -24 -177
-24 -170 17 -169 19 1 59 6 89 12 29 7 89 12 131 12 58 0 81 4 90 16 11 12 11
17 -1 28 -11 11 -33 11 -99 4 -47 -4 -107 -10 -135 -11 l-50 -2 3 70 c1 39 10
126 21 195 17 118 15 150 -9 150 -4 0 -12 -6 -17 -12z"/>
<path d="M2103 759 c-88 -43 -177 -178 -190 -287 -4 -40 -1 -60 17 -97 32 -65
70 -87 141 -82 72 6 130 36 196 103 96 96 133 226 87 305 -42 72 -166 100
-251 58z m168 -42 c46 -31 61 -63 54 -115 -7 -63 -37 -124 -85 -176 -52 -56
-112 -86 -174 -86 -104 0 -138 98 -77 226 32 68 81 128 126 156 43 26 114 24
156 -5z"/>
</g>
</svg>
